HIERARCHY
ROOT Hips
{
	OFFSET 49.248501 -33.688217 84.278091
	CHANNELS 6 Xposition Yposition Zposition Xrotation Yrotation Zrotation
	JOINT spine
	{
		OFFSET 0.000000 -0.359108 6.244797
		CHANNELS 3 Xrotation Yrotation Zrotation
		JOINT spine1
		{
			OFFSET 0.000000 0.000000 9.069412
			CHANNELS 3 Xrotation Yrotation Zrotation
			JOINT spine2
			{
				OFFSET 0.000000 -0.000004 8.690140
				CHANNELS 3 Xrotation Yrotation Zrotation
				JOINT Neck
				{
					OFFSET 0.000000 -1.063725 22.311203
					CHANNELS 3 Xrotation Yrotation Zrotation
					JOINT Head
					{
						OFFSET 0.000000 0.000000 6.740814
						CHANNELS 3 Xrotation Yrotation Zrotation
						End Site
						{
							OFFSET 0.000000 5.380968 16.316498
						}
					}
				}
				JOINT RightShoulder
				{
					OFFSET -3.659161 0.509514 9.384682
					CHANNELS 3 Xrotation Yrotation Zrotation
					JOINT RightArm
					{
						OFFSET 0.000000 -0.000004 12.308907
						CHANNELS 3 Xrotation Yrotation Zrotation
						JOINT RightArmRoll
						{
							OFFSET 0.000000 0.000000 6.213745
							CHANNELS 3 Xrotation Yrotation Zrotation
							JOINT RightForeArm
							{
								OFFSET 0.000000 -0.000004 18.098495
								CHANNELS 3 Xrotation Yrotation Zrotation
								JOINT RightForeArmRoll
								{
									OFFSET 0.000000 0.000000 6.972794
									CHANNELS 3 Xrotation Yrotation Zrotation
									JOINT RightHand
									{
										OFFSET 0.000000 0.000000 13.992905
										CHANNELS 3 Xrotation Yrotation Zrotation
										End Site
										{
											OFFSET 0.000000 0.000000 0.100006
										}
									}
								}
							}
						}
					}
				}
				JOINT LeftShoulder
				{
					OFFSET 3.659161 0.509514 9.384682
					CHANNELS 3 Xrotation Yrotation Zrotation
					JOINT LeftArm
					{
						OFFSET 0.000000 -0.000004 12.308907
						CHANNELS 3 Xrotation Yrotation Zrotation
						JOINT LeftArmRoll
						{
							OFFSET 0.000000 0.000000 6.213745
							CHANNELS 3 Xrotation Yrotation Zrotation
							JOINT LeftForeArm
							{
								OFFSET 0.000000 -0.000004 18.098495
								CHANNELS 3 Xrotation Yrotation Zrotation
								JOINT LeftForeArmRoll
								{
									OFFSET 0.000000 0.000000 6.972794
									CHANNELS 3 Xrotation Yrotation Zrotation
									JOINT LeftHand
									{
										OFFSET 0.000000 0.000000 13.992905
										CHANNELS 3 Xrotation Yrotation Zrotation
										End Site
										{
											OFFSET 0.000000 0.000000 0.100006
										}
									}
								}
							}
						}
					}
				}
			}
		}
	}
	JOINT RightUpLeg
	{
		OFFSET -5.535149 0.851456 -1.014999
		CHANNELS 3 Xrotation Yrotation Zrotation
		JOINT RightUpLegRoll
		{
			OFFSET 0.000000 0.000000 16.407501
			CHANNELS 3 Xrotation Yrotation Zrotation
			JOINT RightLeg
			{
				OFFSET 0.000000 0.000004 -20.318100
				CHANNELS 3 Xrotation Yrotation Zrotation
				JOINT RightLegRoll
				{
					OFFSET 0.000000 -0.000004 20.384598
					CHANNELS 3 Xrotation Yrotation Zrotation
					JOINT RightFoot
					{
						OFFSET 0.000000 -0.000004 16.966805
						CHANNELS 3 Xrotation Yrotation Zrotation
						JOINT RightToeBase
						{
							OFFSET 0.000000 -0.000004 14.183403
							CHANNELS 3 Xrotation Yrotation Zrotation
							End Site
							{
								OFFSET 0.006012 0.791744 6.868896
							}
						}
					}
				}
			}
		}
	}
	JOINT LeftUpLeg
	{
		OFFSET 5.535149 0.851456 -1.014999
		CHANNELS 3 Xrotation Yrotation Zrotation
		JOINT LeftUpLegRoll
		{
			OFFSET 0.000000 0.000000 16.407600
			CHANNELS 3 Xrotation Yrotation Zrotation
			JOINT LeftLeg
			{
				OFFSET 0.000000 -0.000004 20.318100
				CHANNELS 3 Xrotation Yrotation Zrotation
				JOINT LeftLegRoll
				{
					OFFSET 0.000000 -0.000004 20.573112
					CHANNELS 3 Xrotation Yrotation Zrotation
					JOINT LeftFoot
					{
						OFFSET 0.000000 -0.000004 16.778305
						CHANNELS 3 Xrotation Yrotation Zrotation
						JOINT LeftToeBase
						{
							OFFSET 0.000000 0.000000 14.183395
							CHANNELS 3 Xrotation Yrotation Zrotation
							End Site
							{
								OFFSET -0.026943 0.791740 6.868896
							}
						}
					}
				}
			}
		}
	}
}
MOTION
Frames: 5
Frame Time: 0.041667
47.767200 -10.153423 63.817902 41.289549 0.880924 -6.402238 0.545095 -0.280846 -0.075569 5.092689 -0.568078 -0.157452 6.737812 -0.569927 -0.150635 -16.623763 11.599725 3.844899 14.158192 -4.981708 0.616855 -14.124270 -40.274453 -16.029803 153.300249 -28.026542 124.333553 0.000000 -0.000001 -0.000001 65.271467 -10.645839 3.495003 0.000013 0.000012 -2.999990 -5.000249 -7.998753 0.000115 -12.463202 61.660093 14.801117 -74.365775 141.598455 104.323982 0.000001 0.000010 0.000002 46.895550 21.749347 -8.611661 0.000013 -0.000005 3.000001 -5.000029 7.998828 -0.000099 -100.840851 168.830897 -0.500152 -179.999991 0.000005 -0.544006 106.280872 -0.624060 -1.086728 0.000000 0.000001 1.386300 78.815916 6.763650 1.722802 25.462103 -7.355619 0.000000 77.757906 1.623120 -170.611528 -0.000007 -0.000004 -0.635905 -84.569988 -4.083749 -2.650963 0.000000 0.000004 -2.946059 81.633082 -6.280493 -3.240049 27.724108 7.236742 -3.174157 
47.765900 -10.193817 63.888805 41.190586 0.885359 -6.386319 0.543215 -0.279004 -0.074695 5.088940 -0.564088 -0.155998 6.734059 -0.565920 -0.149228 -16.654411 11.565807 3.848072 14.188663 -4.956581 0.625119 -14.108411 -40.399968 -16.013293 153.257752 -28.100681 124.429340 -0.000002 0.000000 -0.000003 65.096115 -10.672221 3.507508 0.000014 0.000008 -2.999991 -5.000251 -7.998751 0.000116 -12.475488 61.702126 14.817064 -74.270965 141.675991 104.032005 -0.000002 0.000010 0.000001 46.597975 21.854223 -8.605460 0.000012 -0.000003 2.999998 -5.000027 7.998827 -0.000102 -100.628644 168.831430 -0.513437 -179.999991 0.000005 -0.546000 106.322877 -0.613808 -1.078976 0.000001 0.000001 1.389240 78.884621 6.764554 1.712288 25.462103 -7.355619 0.000000 77.969389 1.623786 -170.632783 -0.000008 -0.000003 -0.638950 -84.524424 -4.090583 -2.651808 0.000002 0.000003 -2.950281 81.667349 -6.278169 -3.246288 27.737371 7.235657 -3.192574 
47.763000 -10.283224 63.915298 41.090736 0.890144 -6.368952 0.541711 -0.277143 -0.073976 5.085927 -0.560029 -0.154795 6.731066 -0.561847 -0.148075 -16.690604 11.530704 3.851019 14.221939 -4.931193 0.633046 -14.099676 -40.530083 -16.006359 153.213041 -28.175254 124.517818 -0.000002 0.000000 -0.000003 64.915060 -10.701935 3.521709 0.000014 0.000011 -2.999989 -5.000251 -7.998749 0.000118 -12.492830 61.740655 14.838752 -74.170090 141.756615 103.733478 -0.000002 0.000011 -0.000001 46.298120 21.955843 -8.596699 0.000013 -0.000002 2.999999 -5.000028 7.998827 -0.000097 -100.415092 168.833342 -0.527764 -179.999991 0.000005 -0.547995 106.365477 -0.603515 -1.071221 -0.000001 0.000000 1.392200 78.953367 6.765321 1.701661 25.462103 -7.355619 0.000000 78.182273 1.623061 -170.653260 -0.000005 -0.000004 -0.642051 -84.477453 -4.097745 -2.652678 -0.000001 0.000003 -2.954470 81.700886 -6.275819 -3.252467 27.750437 7.234674 -3.210777 
47.760502 -10.237419 64.059494 40.990079 0.895250 -6.350330 0.540512 -0.275254 -0.073394 5.083538 -0.555889 -0.153813 6.728661 -0.557696 -0.147142 -16.731327 11.494285 3.853631 14.257514 -4.905306 0.640628 -14.096690 -40.664388 -16.007312 153.166200 -28.250303 124.600013 0.000002 -0.000000 0.000001 64.729197 -10.734524 3.537177 0.000013 0.000008 -2.999990 -5.000250 -7.998754 0.000116 -12.514279 61.776274 14.865135 -74.063757 141.839752 103.428687 -0.000001 0.000010 -0.000002 45.996502 22.054286 -8.585495 0.000009 -0.000003 2.999998 -5.000033 7.998823 -0.000102 -100.200268 168.836512 -0.541720 -179.999991 0.000006 -0.551000 106.408466 -0.593461 -1.064435 -0.000000 0.000001 1.395170 79.022010 6.765943 1.691230 25.462107 -7.355619 -0.000000 78.396290 1.621341 -170.673436 -0.000004 -0.000004 -0.645193 -84.429020 -4.105165 -2.653680 -0.000002 0.000003 -2.958589 81.733670 -6.273429 -3.258588 27.763408 7.233750 -3.228785 
47.754101 -10.327618 64.092392 40.888726 0.900640 -6.330641 0.539523 -0.273331 -0.072935 5.081568 -0.551662 -0.153021 6.726687 -0.553460 -0.146401 -16.775406 11.456240 3.855717 14.294795 -4.878711 0.647859 -14.098539 -40.802194 -16.014767 153.117460 -28.325870 124.677003 -0.000001 0.000001 -0.000001 64.539824 -10.769396 3.553546 0.000010 0.000009 -2.999991 -5.000249 -7.998750 0.000116 -12.538953 61.809565 14.895193 -73.954201 141.924419 103.120468 0.000000 0.000010 -0.000001 45.694075 22.149574 -8.571975 0.000010 -0.000001 3.000006 -5.000027 7.998827 -0.000100 -99.984291 168.840705 -0.556861 -179.999991 0.000005 -0.552994 106.452152 -0.583370 -1.057658 0.000000 0.000001 1.398130 79.090415 6.766524 1.680801 25.462107 -7.355619 0.000000 78.611386 1.618868 -170.693790 -0.000005 -0.000004 -0.648363 -84.379146 -4.112698 -2.654519 0.000002 0.000003 -2.962610 81.765793 -6.270938 -3.264640 27.776282 7.232885 -3.246614 
